# xmcd
#
# Track frame offsets: 
#        150
#        37342
#        59057
#        88780
#        109765
#        140482
#        166767
#        211810
#
# Disc length: 3085 seconds
#
# Revision: 4
# Processed by: cddbd v1.5.2PL0 Copyright (c) Steve Scherf et al.
# Submitted via: ExactAudioCopy v0.99pb5
#
DISCID=730c0b08,830c0b08
DTITLE=Travis Shook - Travis Shook
DYEAR=1993
DGENRE=Jazz
TTITLE0=Broadway
TTITLE1=Astarte
TTITLE2=Witchcraft
TTITLE3=Dewey North
TTITLE4=Little Girl I'll Miss You
TTITLE5=Touch And Go
TTITLE6=Love For Sale
TTITLE7=My Foolish Heart
EXTD=
EXTT0=
EXTT1=
EXTT2=
EXTT3=
EXTT4=
EXTT5=
EXTT6=
EXTT7=
PLAYORDER=
